<svg enable-background="new 0 0 750 1332" viewBox="0 0 750 1332" xmlns="http://www.w3.org/2000/svg" xmlns:xlink="http://www.w3.org/1999/xlink"><linearGradient id="a"><stop offset="0" stop-color="#81e197"/><stop offset="1" stop-color="#40b297"/></linearGradient><linearGradient id="b" gradientUnits="userSpaceOnUse" x1="209.3978" x2="399.6411" xlink:href="#a" y1="599.4294" y2="467.4455"/><linearGradient id="c" gradientUnits="userSpaceOnUse" x1="180.1546" x2="366.71" xlink:href="#a" y1="743.5125" y2="566.2549"/><linearGradient id="d" gradientUnits="userSpaceOnUse" x1="196.254" x2="376.1494" xlink:href="#a" y1="852.1529" y2="659.3646"/><linearGradient id="e" gradientUnits="userSpaceOnUse" x1="248.7749" x2="371.0324" xlink:href="#a" y1="972.963" y2="777.6948"/><linearGradient id="f" gradientUnits="userSpaceOnUse" x1="304.4225" x2="390.2283" xlink:href="#a" y1="1113.8656" y2="959.1943"/><linearGradient id="g" gradientUnits="userSpaceOnUse" x1="351.6634" x2="392.8087" xlink:href="#a" y1="1181.6844" y2="1064.7654"/><linearGradient id="h" gradientUnits="userSpaceOnUse" x1="355.1161" x2="381.4711" xlink:href="#a" y1="1266.3153" y2="1163.3508"/><linearGradient id="i" gradientUnits="userSpaceOnUse" x1="373.5934" x2="382.0567" xlink:href="#a" y1="1340.8684" y2="1224.0286"/><linearGradient id="j" gradientUnits="userSpaceOnUse" x1="520.7366" x2="665.8438" xlink:href="#a" y1="372.3304" y2="277.3724"/><linearGradient id="k" gradientUnits="userSpaceOnUse" x1="573.5104" x2="743.1519" xlink:href="#a" y1="311.3836" y2="144.0399"/><linearGradient id="l" gradientUnits="userSpaceOnUse" x1="502.7711" x2="587.0974" xlink:href="#a" y1="387.6921" y2="343.7011"/><linearGradient id="m" gradientUnits="userSpaceOnUse" x1="624.3304" x2="750.5234" xlink:href="#a" y1="188.5041" y2="83.9581"/><linearGradient id="n" gradientUnits="userSpaceOnUse" x1="341.6703" x2="541.4792" xlink:href="#a" y1="512.439" y2="365.6365"/><path d="m750.75 897.59v70.97c-123.66-83.39-583.88-207.4-513.35-416.61 61.9-183.65-143.46-370.42-237.4-454.98v-96.97h105.84c58.51 43.41 151.18 141.96 154.6 332.17 5.01 278.72 226.38 144.86 197.33 368.63-25.01 192.62 173.37 89.17 292.98 196.79z" fill="url(#b)"/><path d="m750.75 968.56v50.51c-281.3-174.72-617.26-73.35-530.38-251.34 66.07-135.36-113.44-370.85-220.37-493.32v-177.44c93.94 84.56 299.3 271.33 237.4 454.97-70.53 209.22 389.69 333.23 513.35 416.62z" fill="url(#c)"/><path d="m750.75 1019.07v26.91c-159.2-122.06-413.56-103.04-490.32-110.42-83.14-7.99-113.19-129.87-85.14-238.43 20.45-79.14-105.53-190.16-175.29-244.48v-178.24c106.93 122.48 286.44 357.96 220.37 493.33-86.88 177.98 249.08 76.62 530.38 251.33z" fill="url(#d)"/><path d="m750.75 1045.98v42.89c-241.18-118.87-321.12-43.86-487.31-65.39-105.33-13.65-202.17-158.82-263.44-274.41v-296.42c69.76 54.33 195.74 165.34 175.29 244.49-28.05 108.56 2 230.44 85.14 238.43 76.76 7.38 331.12-11.64 490.32 110.41z" fill="url(#e)"/><path d="m750.75 1088.87v134c-93.46-6.28-223.26-33.77-386.64-112.81-187.83-90.87-293.95-115.03-364.11-122.59v-238.4c61.27 115.59 158.11 260.76 263.44 274.41 166.19 21.53 246.13-53.48 487.31 65.39z" fill="url(#f)"/><path d="m750.75 1222.87v18.27c-123.77-7.25-376.73-30.54-505.34-102.78-96.78-54.36-179.04-48.97-245.41-29.31v-121.58c70.16 7.56 176.28 31.72 364.11 122.59 163.38 79.04 293.18 106.52 386.64 112.81z" fill="url(#g)"/><path d="m750.75 1241.14v24.15c-169.71-48-503.31-41.14-547.41 1.95-30.88 30.16-132.34 33.97-203.34 32.64v-190.83c66.37-19.66 148.63-25.05 245.41 29.31 128.61 72.24 381.57 95.53 505.34 102.78z" fill="url(#h)"/><path d="m750.75 1265.28v67.38h-750.75v-32.79c71 1.33 172.46-2.48 203.34-32.65 44.1-43.07 377.7-49.94 547.41-1.94z" fill="url(#i)"/><path d="m750.75 483.43v174.96c-13.91-42.36-32.22-77.97-52.59-89.46-53.09-29.97-237.4-189.81-208.35-349.65 19.8-108.92-29.24-182.12-67.26-219.28h114.97c-14.14 74.02-41.32 239.71-13.65 297.2 36.06 74.93 123.21-1 192.32 102.9 16 24.05 26.9 52.86 34.56 83.33z" fill="url(#j)"/><path d="m750.75 292.36v191.07c-7.66-30.47-18.56-59.28-34.56-83.33-69.12-103.9-156.26-27.97-192.32-102.9-27.66-57.49-.49-223.18 13.65-297.2h62.56c-14.2 58.9-36.13 185.44 50.03 145.68 72.32-33.35 69.18 77.19 100.64 146.68z" fill="url(#k)"/><path d="m750.75 658.39v153.94c-22.06-44.22-61.38-87.74-110.68-120.52-78.13-51.95-68.11-211.79-68.11-211.79s13.02-52.95-162.27-195.8c-137.77-112.28-203.77-236.28-225.71-284.22h238.58c38.01 37.16 87.05 110.36 67.26 219.28-29.05 159.84 155.26 319.68 208.35 349.65 20.36 11.49 38.67 47.1 52.58 89.46z" fill="url(#l)"/><path d="m750.75 0v292.36c-31.46-69.49-28.32-180.03-100.63-146.67-86.16 39.75-64.23-86.79-50.03-145.69z" fill="url(#m)"/><path d="m750.75 812.33v85.26c-119.61-107.62-317.99-4.18-292.99-196.79 29.05-223.78-192.32-89.91-197.33-368.63-3.41-190.21-96.09-288.76-154.59-332.17h78.14c21.95 47.94 87.95 171.94 225.71 284.22 175.29 142.86 162.27 195.8 162.27 195.8s-10.02 159.84 68.11 211.79c49.3 32.78 88.62 76.3 110.68 120.52z" fill="url(#n)"/></svg>