<svg enable-background="new 0 0 1039 1056" viewBox="0 0 1039 1056" xmlns="http://www.w3.org/2000/svg"><g fill="#fff"><path d="m512.63 31.44c-51.92 24.91-103.81 49.86-155.7 74.79-33.5 16.1-66.99 32.22-100.49 48.31-51.75 24.87-103.5 49.7-155.24 74.58-31.71 15.25-63.35 30.63-95.13 45.72-4.17 1.98-5.63 4.22-5.62 8.88.12 236.32.11 472.65.11 708.97v6h578.06v-998.71c-22.3 10.63-44.17 20.99-65.99 31.46zm-333.56 806.55c-5.63 18.02-18.36 27.92-36.33 30.83-9.39 1.52-19.14.91-28.73 1.19-3.47.11-6.95.02-11.13.02v51.74h-39.54v-155.52c1.49-.08 3.09-.22 4.69-.22 20.32-.01 40.66-.29 60.97.11 10.47.21 20.8 1.96 30.13 7.46 10.57 6.23 17.52 15.27 20.58 27.03 3.24 12.44 3.25 24.91-.64 37.36zm134.59 81.02c-9.23 4.17-19.07 6.13-29.29 7.23-17.58 1.89-33.86-1.51-49.22-9.66-20.25-10.74-32.56-27.92-37.75-49.91-5.08-21.52-3.75-42.84 6.32-62.83 11.87-23.58 31.66-36.57 57.47-40.84 18.83-3.12 37.23-1.81 54.55 6.48 15.47 7.41 26.72 19.34 34.04 35.11-12.35 5.12-24.63 10.22-37.37 15.5-1.61-2.65-3.34-5.35-4.94-8.13-10.59-18.48-37.71-19.93-52.86-8.1-10.45 8.16-14.87 19.2-16.78 31.98-1.75 11.73-.22 22.74 4.11 33.63 4.51 11.37 17.68 20.49 29.67 21.8 7.4.8 14.48.44 21.25-1.81 10.81-3.59 17.25-11.35 18.6-23.28h-33.09v-30.82h79.04c2.89 33.5-8.05 67.53-43.75 83.65zm202.22-54.21c-.17 14.73-3.57 28.76-12.77 40.93-7.17 9.5-16.82 14.85-28 17.71-21.17 5.4-42.15 5.44-62.61-3.23-16.38-6.95-25.73-19.86-29.35-36.8-1.86-8.76-2.9-17.86-3.02-26.82-.38-28.15-.14-56.31-.14-84.46v-5.9h41v5.52c0 30.82-.15 61.64.15 92.46.05 4.9 1.51 10.02 3.37 14.62 3.15 7.8 9.43 12.04 17.95 12.14 5.44.06 11.01.08 16.3-.99 9.92-2 14.25-9.69 16.09-18.72 1.05-5.12 1.08-10.5 1.1-15.76.1-27.82.05-55.64.05-83.46v-5.71h40v5.51c0 30.99.26 61.98-.12 92.96z"/><path d="m1039.05 649.49v273.95h-357.12v-615.34c11.93 8.37 22.97 16.13 34.01 23.88 38 26.66 75.98 53.35 114 79.98 27.34 19.14 54.77 38.15 82.09 57.31 33.95 23.8 67.83 47.7 101.75 71.54 7.43 5.22 14.86 10.44 22.41 15.49 2.38 1.59 2.92 3.51 2.91 6.21-.09 28.99-.05 57.99-.05 86.98z"/><path d="m139.47 822.02c-2.94 11.85-8.41 16.01-20.8 16.01h-15.32v-39.47c8.27.51 16.48.1 24.27 1.7 10.72 2.2 13.68 14.4 11.85 21.76z"/></g></svg>